HIERARCHY
ROOT Hips
{
    OFFSET 0.0 0.0 0.0
    CHANNELS 6 Xposition Yposition Zposition Zrotation Xrotation Yrotation
    JOINT LHipJoint
    {
        OFFSET 0.1 0.0 0.0
        CHANNELS 3 Zrotation Xrotation Yrotation
        JOINT LeftHip
        {
            OFFSET 0.1697809249162674 0.0 0.0
            CHANNELS 3 Zrotation Xrotation Yrotation
            JOINT LeftKnee
            {
                OFFSET 0.0 0.0 -0.31428951025009155
                CHANNELS 3 Zrotation Xrotation Yrotation
                JOINT LeftAnkle
                {
                    OFFSET 0.0 0.0 -0.5130666494369507
                    CHANNELS 3 Zrotation Xrotation Yrotation
                    End Site
                    {
                        OFFSET 0.0 -0.1 0.0
                    }
                }
            }
        }
    }
    JOINT lowerback
    {
        OFFSET 0.0 0.0 0.1
        CHANNELS 3 Zrotation Xrotation Yrotation
        JOINT Chest
        {
            OFFSET 0.0 0.0 0.2723461091518402
            CHANNELS 3 Zrotation Xrotation Yrotation
            JOINT Chest2
            {
                OFFSET 0.0 0.0 0.31228214502334595
                CHANNELS 3 Zrotation Xrotation Yrotation
                JOINT LeftCollar
                {
                    OFFSET 0.1 0.0 0.0
                    CHANNELS 3 Zrotation Xrotation Yrotation
                    JOINT LeftShoulder
                    {
                        OFFSET 0.2186739444732666 0.0 0.0
                        CHANNELS 3 Zrotation Xrotation Yrotation
                        JOINT LeftElbow
                        {
                            OFFSET 0.2778531610965729 0.0 0.0
                            CHANNELS 3 Zrotation Xrotation Yrotation
                            JOINT LeftWrist
                            {
                                OFFSET 0.3733416497707367 0.0 0.0
                                CHANNELS 3 Zrotation Xrotation Yrotation
                                End Site
                                {
                                    OFFSET 0.1 0.0 0.0
                                }
                            }
                        }
                    }
                }
                JOINT Neck
                {
                    OFFSET 0.0 0.0 0.1
                    CHANNELS 3 Zrotation Xrotation Yrotation
                    JOINT Head
                    {
                        OFFSET 0.0 0.0 0.2967161536216736
                        CHANNELS 3 Zrotation Xrotation Yrotation
                        End Site
                        {
                            OFFSET 0.0 0.0 0.1692984402179718
                        }
                    }
                }
                JOINT RightCollar
                {
                    OFFSET -0.1 0.0 0.0
                    CHANNELS 3 Zrotation Xrotation Yrotation
                    JOINT RightShoulder
                    {
                        OFFSET -0.2186739444732666 0.0 0.0
                        CHANNELS 3 Zrotation Xrotation Yrotation
                        JOINT RightElbow
                        {
                            OFFSET -0.2778531610965729 0.0 0.0
                            CHANNELS 3 Zrotation Xrotation Yrotation
                            JOINT RightWrist
                            {
                                OFFSET -0.3733416497707367 0.0 0.0
                                CHANNELS 3 Zrotation Xrotation Yrotation
                                End Site
                                {
                                    OFFSET -0.1 0.0 0.0
                                }
                            }
                        }
                    }
                }
            }
        }
    }
    JOINT RHipJoint
    {
        OFFSET -0.1 0.0 0.0
        CHANNELS 3 Zrotation Xrotation Yrotation
        JOINT RightHip
        {
            OFFSET -0.1697809249162674 0.0 0.0
            CHANNELS 3 Zrotation Xrotation Yrotation
            JOINT RightKnee
            {
                OFFSET 0.0 0.0 -0.31428951025009155
                CHANNELS 3 Zrotation Xrotation Yrotation
                JOINT RightAnkle
                {
                    OFFSET 0.0 0.0 -0.5130666494369507
                    CHANNELS 3 Zrotation Xrotation Yrotation
                    End Site
                    {
                        OFFSET 0.0 -0.1 0.0
                    }
                }
            }
        }
    }
}
MOTION
Frames: 8
Frame Time: 0.06666666666666667
-5.579837306868285e-06 0.32348546385765076 -7.362682663369924e-05 -4.802009938426787 -23.072098322505262 -15.803797360426463 -1.9878466759146977e-16 3.1557065980145822e-15 7.454425034680116e-16 102.04945263873218 53.87751018433116 -50.37570317862581 -107.73778230781214 -39.07774730051735 -95.17187928731398 1.987846675914698e-16 9.93923337957349e-17 -1.888454342118963e-15 -1.9878466759146977e-16 3.1557065980145822e-15 7.454425034680116e-16 -0.5908933632818653 -0.8270698387548775 -1.5657281972725097 -10.453699421779685 2.240272262532829e-06 2.2582207192203905e-06 1.5902773407317584e-15 3.310429723537619e-32 2.3854160110976376e-15 10.550297290188198 -58.670409010740265 -134.82941833225257 -112.17419297760651 -5.180533087791195e-07 -2.121044784417262e-06 -4.770832022195274e-15 -3.1805546814635168e-15 4.770832022195274e-15 1.5902773407317584e-15 3.310429723537619e-32 2.3854160110976376e-15 2.822479638139733 -64.59497177821545 -6.254741273208824 1.5902773407317584e-15 3.310429723537619e-32 2.3854160110976376e-15 18.39627805707063 -42.377322629551934 125.46265361969425 68.76329518146815 4.530578654362643e-06 -3.7594961511834253e-06 1.5902773407317584e-15 1.5902773407317584e-15 1.1927080055488188e-15 -1.9878466759146977e-16 3.1557065980145822e-15 7.454425034680116e-16 -96.82394035576938 -54.213502413182084 -16.014659550828167 114.74207743705321 9.397506232474106 -74.10724920104097 -1.3793457181406746e-33 -3.975693351829396e-16 -3.975693351829396e-16
4.2755909817060456e-06 0.3235045373439789 -7.979328802321106e-05 6.863012051092134 -22.85553740266819 -10.8056170497466 0.0 0.0 -1.987846675914698e-16 10.559467322342979 20.189524725100735 20.245716550726804 -14.379552454771538 -12.178020520450033 -25.020998719683906 -3.1805546814635168e-15 -5.517382872562698e-32 1.987846675914698e-15 0.0 0.0 -1.987846675914698e-16 0.0006830359660589042 0.0013482669455549814 -5.349513664067712 -16.98799258928502 1.360123633042476e-06 7.787546109665698e-07 0.0 0.0 7.951386703658791e-16 12.001033442768643 -74.5275925565267 -144.58830529186758 -137.20190956392062 -4.47830647383315e-06 1.1244415350189005e-06 -6.3611093629270335e-15 6.361109362927033e-15 7.951386703658792e-15 0.0 0.0 7.951386703658791e-16 14.580285993260699 -70.42238543382113 7.3756798307478535 0.0 0.0 7.951386703658791e-16 5.701718299968543 -51.59228418194577 131.36900810394894 73.47357577084995 7.134561471123545e-07 -3.2422159982529794e-06 -1.5902773407317584e-15 4.4139062980501586e-32 -3.1805546814635168e-15 0.0 0.0 -1.987846675914698e-16 -20.338395928448264 -34.640820607467234 30.034371552453496 61.55285882502266 23.783597484747954 -55.651220588197006 2.586273221513765e-34 3.975693351829396e-16 -7.454425034680117e-17
6.018259227857925e-06 0.3235396444797516 -9.418991976417601e-05 15.537017980267695 -22.038032719585846 -8.893007433383879 2.069018577211012e-33 -1.987846675914698e-16 1.1927080055488188e-15 -10.71921827117942 -27.612337279590907 -6.641013789747612 20.621099884339433 52.2410190626929 9.2197150823678 -3.1805546814635156e-15 -1.6552148617688095e-32 5.963540027744092e-16 2.069018577211012e-33 -1.987846675914698e-16 1.1927080055488188e-15 1.7911497539598715 5.099254191530789 -5.892285437195789 -19.509391726821185 -7.011096871121554e-07 1.8190438127551642e-06 4.969616689786745e-16 2.4848083448933737e-17 2.807833429729511e-15 -6.382205237339038 -86.69759113807363 -159.195678122562 -152.0385105257039 3.283617592291166e-06 -1.6023605302339307e-06 3.531125038440127e-31 6.361109362927035e-15 -6.361109362927035e-15 4.969616689786745e-16 2.4848083448933737e-17 2.807833429729511e-15 3.6076864183972925 -80.3646342731107 -1.0529587275671501 4.969616689786745e-16 2.4848083448933737e-17 2.807833429729511e-15 -6.887346696201136 -62.97949903686309 132.29442351670826 83.23729371689232 -4.21364984778989e-06 -3.612752928447896e-07 4.770832022195274e-15 -6.3611093629270335e-15 -7.951386703658792e-15 2.069018577211012e-33 -1.987846675914698e-16 1.1927080055488188e-15 -15.552547137412338 -37.71000123571362 12.792604078534016 65.4447375736439 49.848981356283 -45.61133958512017 6.361109362927032e-15 -4.969616689786744e-17 2.758691436281349e-33
-6.1448008636944e-07 0.3235528767108917 -9.997145389206707e-05 11.177089298833787 -19.061783254061798 -10.885121284180535 0.0 -3.1805546814635168e-15 0.0 -11.632366097789287 -26.63222966997781 -6.385188138097421 18.86833614313351 44.95167306591047 7.54023478360474 0.0 -3.975693351829396e-16 0.0 0.0 -3.1805546814635168e-15 0.0 2.8029614540100116 7.0354874129349945 -3.701518130372568 -14.830932771612096 5.153417650827304e-08 -3.071624117035802e-08 -1.3793457181406746e-33 -1.5902773407317584e-15 -9.93923337957349e-17 -88.48430622435532 -86.38503330205442 122.54903393472584 -154.0863888991098 2.4238073101766623e-06 9.882870342917047e-08 -3.1805546814635164e-15 1.7655625192200634e-31 -6.361109362927033e-15 -1.3793457181406746e-33 -1.5902773407317584e-15 -9.93923337957349e-17 0.14595897714945308 -86.3122140811681 -7.489754862491388 -1.3793457181406746e-33 -1.5902773407317584e-15 -9.93923337957349e-17 -10.256471666406272 -65.20225928146027 130.26208589139256 86.83068494731339 3.0988895666877744e-06 4.935646836759973e-06 -3.1805546814635164e-15 -1.5902773407317582e-15 1.5902773407317582e-15 0.0 -3.1805546814635168e-15 0.0 -23.523605123028783 -45.40237388903453 2.5174915890339657 82.24770486604827 55.58944624030542 -55.21442147523767 3.1805546814635168e-15 1.1034765745125397e-32 3.975693351829396e-16
-3.193992597516626e-06 0.3235328793525696 -9.316866635344923e-05 -1.3330935755781892 -17.44483823560191 -12.540953004384368 0.0 0.0 6.957463365701445e-16 -2.4023294693716273 -4.276366982597019 19.836759783710285 6.842558480570599 6.269258190720067 -32.291702443384416 -6.034637516865451e-34 -9.939233379573492e-17 -6.957463365701445e-16 0.0 0.0 6.957463365701445e-16 1.7248698925276023 3.320466377964525 -2.8915777895407575 -8.199457159488336 -1.316224471546707e-06 7.051218227445978e-07 0.0 0.0 -2.882377680076313e-15 -7.637863605685147 -81.45939057242343 -159.98902626832967 -140.80452233803283 -6.4069727019221374e-06 2.5236907235806394e-06 1.5902773407317584e-15 -8.827812596100317e-32 -6.3611093629270335e-15 0.0 0.0 -2.882377680076313e-15 13.420736445631878 -80.23920506545888 4.274858855576202 0.0 0.0 -2.882377680076313e-15 -3.55294926255902 -57.72843890930839 126.85859881066423 77.26127284286704 -7.049519554639285e-07 2.862910024581311e-06 -1.5902773407317584e-15 0.0 0.0 0.0 0.0 6.957463365701445e-16 -37.070059632212995 -49.37782503780311 2.47085740985093 85.56728469971176 42.38993900891287 -63.18096746205411 3.1805546814635176e-15 7.951386703658794e-16 -9.939233379573495e-17
-6.7870059865526855e-06 0.32350465655326843 -8.068243914749473e-05 -16.966052554083298 -15.943458796323627 -16.687087461932926 0.0 0.0 0.0 72.4499287676851 53.559137913989055 -4.260158409096975 -80.6273237071611 -18.158338171811284 -87.52454542176605 1.5902773407317584e-15 -2.758691436281349e-32 -1.987846675914698e-15 0.0 0.0 0.0 -0.5600732204441107 -0.7932027943702549 -3.9881557520895226 2.1540613456646764 -5.326275512586684e-07 -1.1918401547092903e-06 -1.5902773407317582e-15 3.578124016646456e-15 -7.95138670365879e-16 49.60305197239532 -63.31803224381964 -101.63812922020732 -94.59208133186257 2.8330346521984913e-06 -5.711706424107903e-06 3.1805546814635176e-15 -3.1805546814635176e-15 1.5902773407317588e-15 -1.5902773407317582e-15 3.578124016646456e-15 -7.95138670365879e-16 22.205078997861218 -72.66165081694139 10.97738256395522 -1.5902773407317582e-15 3.578124016646456e-15 -7.95138670365879e-16 18.26716357673999 -46.982404853502445 130.84177031837598 67.17782694615163 -3.2672114375307107e-06 1.2727145634420484e-06 1.5902773407317584e-15 1.1034765745125397e-32 7.951386703658792e-16 0.0 0.0 0.0 -68.88936470492267 -52.860743996734506 -5.808101084886635 91.83993739759889 22.756200090841663 -77.21589106653408 -4.4139062980501586e-32 -1.5902773407317584e-15 -3.1805546814635168e-15
-1.3914032024331391e-05 0.32348892092704773 -7.774366531521082e-05 -15.862431944542275 -17.038653527337775 -16.16658211018453 -1.5902773407317588e-15 -5.517382872562698e-33 3.975693351829397e-16 101.62905543185889 50.517515106492496 -32.203872984474906 -97.84114841973758 -22.836379053301844 -91.651920131975 7.951386703658794e-16 2.758691436281349e-33 3.975693351829397e-16 -1.5902773407317588e-15 -5.517382872562698e-33 3.975693351829397e-16 -0.07203899528061859 -0.08914615478110226 -3.6077201142162605 1.361330538356206 1.843597297843933e-06 5.051450290204807e-07 0.0 0.0 -3.9756933518293955e-16 31.39770892577568 -65.28110476447868 -116.7058177513289 -98.58996138713296 4.523936388456609e-06 -1.998272158670947e-06 -6.361109362927035e-15 3.1805546814635176e-15 -3.1805546814635176e-15 0.0 0.0 -3.9756933518293955e-16 6.922225991082685 -72.17706396620713 -2.550207889297783 0.0 0.0 -3.9756933518293955e-16 19.504272426136538 -48.03808472143234 130.6843928834779 69.74967965472108 -2.174551343388152e-06 1.8716265733115003e-06 4.770832022195274e-15 -3.4759512097145e-31 -8.34895603884173e-15 -1.5902773407317588e-15 -5.517382872562698e-33 3.975693351829397e-16 -108.93118170394436 -49.39987411490406 -30.736366251575735 115.86194672193596 14.457819000677047 -82.20414569077616 3.9756933518293955e-16 6.638101268551996e-33 1.9133024255678963e-15
-1.4273486158344895e-05 0.3234742283821106 -7.183197885751724e-05 -13.440478844258248 -18.846228983423604 -17.25423669182594 -6.620859447075238e-32 3.1805546814635168e-15 2.3854160110976376e-15 111.94232463220266 45.78761655785287 -47.16322898828378 -109.8407580702778 -29.39812883363275 -91.11518884650955 1.5902773407317582e-15 1.1034765745125397e-32 7.951386703658791e-16 -6.620859447075238e-32 3.1805546814635168e-15 2.3854160110976376e-15 1.5403552290863662 1.7050188965424724 -0.9621388812078148 -1.2700207313316332 9.916336347679946e-07 -1.3644444586234117e-06 2.069018577211012e-33 -1.987846675914698e-16 1.1927080055488188e-15 19.171504450729337 -65.92750523191891 -122.868203204372 -103.63056605560944 -2.3260506277459076e-06 2.606283937488753e-06 3.1805546814635168e-15 -1.3241718894150476e-31 -4.770832022195275e-15 2.069018577211012e-33 -1.987846675914698e-16 1.1927080055488188e-15 3.291149087177616 -68.73743089620562 -4.068266061525029 2.069018577211012e-33 -1.987846675914698e-16 1.1927080055488188e-15 17.57954144927817 -45.52918508295625 126.92409240384613 65.3941479753945 -1.2793305853806908e-06 -3.8933114546610225e-07 -1.590277340731758e-15 -1.590277340731758e-15 -3.180554681463516e-15 -6.620859447075238e-32 3.1805546814635168e-15 2.3854160110976376e-15 -150.13578831740963 -28.694513699198794 -55.2294070871862 151.99732779941317 7.232196901242461 -86.93763337285334 0.0 0.0 -7.454425034680117e-16
